<?xml version="1.0" standalone="no"?>
<!DOCTYPE svg PUBLIC "-//W3C//DTD SVG 20010904//EN"
 "http://www.w3.org/TR/2001/REC-SVG-20010904/DTD/svg10.dtd">
<svg version="1.0" xmlns="http://www.w3.org/2000/svg"
 width="952.000000pt" height="370.000000pt" viewBox="0 0 952.000000 370.000000"
 preserveAspectRatio="xMidYMid meet">

<g transform="translate(0.000000,370.000000) scale(0.100000,-0.100000)"
fill="#000000" stroke="none">
<path d="M1712 3364 c-24 -17 -30 -62 -10 -93 8 -14 8 -29 0 -64 -18 -70 -14
-134 13 -232 57 -202 69 -371 40 -570 -8 -55 -15 -103 -15 -107 0 -5 -7 -8
-15 -8 -13 0 -15 20 -15 123 0 111 -15 236 -38 312 -5 17 -25 62 -45 101 -56
111 -102 304 -98 411 2 46 -1 54 -23 69 -33 21 -70 12 -93 -22 -22 -35 -8 -74
35 -96 19 -9 36 -18 38 -21 3 -2 13 -49 24 -104 22 -116 41 -176 80 -253 28
-57 70 -171 70 -192 0 -6 -6 -19 -14 -27 -12 -13 -12 -26 -1 -77 7 -33 16
-100 20 -149 l7 -89 -24 16 c-26 17 -39 14 -55 -16 -9 -16 -15 -10 -44 45 -19
35 -46 89 -59 119 -14 30 -29 58 -34 61 -5 4 -7 13 -4 21 3 7 2 31 -2 53 l-8
40 -1 -47 c0 -27 -4 -48 -9 -48 -17 0 -52 122 -67 233 -17 121 -33 177 -79
280 -31 69 -32 79 -6 102 27 25 25 61 -6 91 -19 20 -31 24 -52 19 -40 -10 -52
-24 -52 -61 0 -24 8 -41 25 -56 14 -12 25 -27 25 -34 0 -7 17 -53 39 -101 42
-97 55 -145 72 -278 18 -141 42 -200 140 -362 40 -65 79 -138 79 -148 0 -3
-24 20 -54 52 -149 160 -250 323 -296 478 -56 185 -76 225 -146 292 -24 22
-34 41 -34 61 0 37 -22 56 -66 56 -58 0 -83 -58 -46 -105 13 -15 29 -22 53
-22 76 0 132 -76 190 -259 47 -150 108 -277 180 -373 47 -64 190 -228 214
-248 6 -5 3 -7 -7 -5 -31 6 -218 170 -296 260 -90 104 -245 309 -267 353 -8
17 -23 43 -34 59 -13 20 -18 39 -14 62 12 76 -70 117 -116 57 -32 -40 -4 -103
46 -103 18 0 32 -14 59 -57 91 -146 154 -230 307 -410 79 -94 90 -113 40 -68
-41 36 -180 145 -239 187 -66 46 -251 158 -262 158 -14 0 -39 33 -46 61 -9 38
-57 57 -91 35 -68 -45 -27 -136 53 -120 30 6 110 -30 217 -98 113 -72 325
-236 390 -303 85 -87 160 -175 148 -175 -4 0 -55 39 -113 86 -201 163 -303
218 -490 264 -156 39 -207 60 -265 111 -26 23 -35 39 -35 63 0 47 -25 76 -64
76 -41 0 -66 -26 -66 -68 0 -36 30 -62 71 -62 14 0 34 -10 45 -21 49 -55 125
-91 274 -129 92 -24 167 -53 248 -96 119 -62 325 -214 311 -228 -4 -4 -69 26
-145 65 -76 40 -159 79 -184 86 -53 17 -218 43 -269 43 -38 0 -84 13 -196 54
-38 14 -76 26 -84 26 -7 0 -29 14 -48 30 -41 36 -57 37 -88 5 -63 -62 14 -149
85 -96 38 27 46 27 138 -8 102 -39 145 -49 278 -60 69 -6 133 -19 170 -32 l59
-22 -30 -13 -30 -13 31 -1 c33 0 123 -34 219 -82 59 -30 59 -31 37 -46 -27
-17 -28 -29 -4 -55 17 -20 16 -20 -103 -12 -137 8 -155 8 -212 -1 -48 -7 -120
12 -215 55 -75 35 -154 55 -267 70 -89 12 -111 22 -111 53 0 24 -55 49 -85 38
-11 -4 -27 -19 -35 -33 -28 -49 27 -108 83 -88 33 12 231 -17 312 -46 39 -14
113 -41 165 -60 93 -35 98 -36 283 -41 171 -4 226 -13 162 -27 -14 -3 -37 -8
-52 -11 -222 -47 -390 -44 -596 11 -68 18 -200 20 -246 4 -25 -9 -42 -9 -71 1
-34 11 -43 11 -64 -4 -56 -36 -37 -116 27 -116 38 0 47 6 70 42 36 57 152 61
367 14 115 -26 137 -28 270 -23 95 4 178 13 240 27 129 29 174 35 166 21 -4
-6 -16 -11 -27 -11 -10 0 -27 -4 -37 -10 -38 -21 -266 -89 -377 -111 -128 -26
-248 -39 -357 -39 -107 0 -122 2 -148 22 -25 18 -35 20 -58 12 -39 -14 -57
-56 -40 -91 18 -37 84 -45 113 -13 14 15 30 20 69 20 58 0 293 24 376 39 102
18 255 59 375 100 128 45 295 91 326 91 10 0 19 -4 19 -8 0 -19 -87 -56 -195
-81 -48 -12 -66 -16 -185 -42 -167 -37 -476 -170 -651 -280 -40 -25 -53 -29
-88 -23 -49 8 -81 -14 -81 -55 0 -46 27 -73 68 -69 32 3 39 8 56 45 17 35 35
50 120 101 127 75 178 101 308 153 113 45 390 119 441 118 38 0 41 1 -118 -60
-222 -84 -329 -151 -480 -300 -70 -69 -131 -119 -169 -138 -57 -31 -119 -40
-131 -21 -10 17 -71 11 -88 -8 -37 -41 -6 -112 49 -112 16 0 37 12 56 32 17
19 52 39 86 51 70 23 96 43 214 160 119 119 224 188 419 275 123 56 195 61
102 8 -210 -119 -302 -195 -391 -324 -76 -109 -89 -123 -184 -201 -43 -34 -78
-66 -78 -72 0 -5 -10 -9 -23 -9 -38 0 -67 -27 -67 -64 0 -40 26 -66 67 -66 43
0 67 30 60 75 -7 40 -10 36 117 149 47 42 100 102 136 155 53 80 149 181 171
181 11 0 12 -17 2 -22 -12 -5 -63 -83 -63 -96 0 -7 -3 -12 -8 -12 -9 0 -52
-93 -52 -114 0 -9 6 -16 14 -16 8 0 16 -7 20 -15 4 -10 -1 -15 -14 -15 -11 0
-20 5 -20 10 0 17 -17 11 -24 -7 -3 -10 -9 -24 -12 -30 -8 -18 11 -16 58 7 23
11 47 20 53 20 15 0 139 79 143 91 2 5 10 9 18 9 8 0 14 4 14 9 0 10 31 24 38
17 11 -12 -89 -114 -180 -183 -77 -58 -115 -95 -168 -168 l-70 -93 -46 1 c-52
0 -74 -18 -74 -62 0 -32 8 -45 38 -60 31 -17 73 5 87 44 5 17 46 77 90 135 62
81 102 121 170 172 50 37 105 84 124 105 59 68 143 200 203 321 6 12 17 22 24
22 13 0 12 -4 -15 -87 -59 -184 -153 -343 -295 -501 -84 -94 -128 -167 -140
-233 -4 -24 -15 -40 -31 -49 -55 -30 -38 -112 24 -118 60 -6 93 55 56 104 -21
28 -19 46 15 122 19 41 51 88 84 122 160 165 258 331 333 560 20 63 41 117 45
118 4 2 8 13 9 25 0 12 3 17 5 11 9 -21 -67 -348 -112 -484 -40 -118 -121
-299 -180 -397 -10 -18 -29 -35 -41 -38 -34 -8 -53 -33 -53 -69 0 -37 12 -51
53 -61 51 -13 93 46 67 94 -6 13 -4 27 11 52 87 149 192 408 229 564 6 28 15
66 21 85 5 19 16 71 24 115 39 198 74 315 97 315 25 0 -1 -129 -67 -330 -64
-198 -96 -413 -96 -663 -1 -153 -1 -159 -25 -184 -29 -32 -31 -76 -4 -103 23
-23 39 -25 74 -9 43 20 44 83 2 119 -13 10 -16 36 -16 131 0 65 4 151 9 191 6
40 15 118 21 173 15 130 25 175 73 325 39 123 65 177 54 115 -38 -220 -41
-251 -41 -415 -1 -169 0 -179 33 -290 37 -128 47 -205 37 -275 -6 -39 -13 -50
-42 -67 -41 -24 -53 -61 -33 -97 12 -20 24 -27 56 -29 36 -3 44 1 59 23 15 23
15 29 2 64 -13 33 -13 47 -2 102 15 71 8 136 -26 244 -38 124 -45 170 -45 325
1 147 21 340 36 340 14 0 19 -33 19 -123 0 -194 18 -277 96 -448 29 -62 49
-127 60 -185 8 -49 20 -103 25 -120 5 -17 6 -51 3 -76 -5 -38 -3 -49 15 -67
59 -59 143 18 95 87 -8 12 -24 22 -35 22 -23 0 -43 41 -53 110 -15 101 -30
150 -81 260 -50 109 -86 233 -71 247 4 4 9 -3 13 -15 3 -12 9 -22 14 -22 5 0
9 -6 9 -13 0 -18 24 -67 33 -67 4 0 7 -5 7 -11 0 -14 57 -96 92 -133 15 -16
28 -34 28 -39 0 -7 5 -6 13 1 8 9 13 62 15 170 2 86 0 154 -4 149 -4 -4 -8
-44 -8 -90 -1 -79 -2 -82 -24 -80 -13 2 -33 -4 -46 -12 -22 -14 -24 -14 -38 7
-66 101 -105 232 -109 371 -2 64 3 76 27 56 14 -11 18 -11 30 5 7 10 19 16 27
13 18 -7 104 -179 113 -226 7 -31 8 -32 18 -13 11 20 13 18 34 -28 25 -55 52
-166 52 -219 0 -51 29 -157 62 -231 38 -83 45 -122 24 -139 -24 -20 -21 -77 6
-95 48 -34 102 -8 102 50 0 25 -7 41 -26 57 -14 12 -29 34 -32 50 -4 15 -17
51 -31 81 -36 78 -51 132 -64 221 -31 210 -41 238 -155 430 -37 60 -66 116
-66 124 0 17 61 -48 144 -154 90 -114 158 -238 196 -357 18 -57 41 -125 51
-151 21 -56 82 -143 110 -158 12 -6 19 -20 19 -39 0 -38 32 -70 68 -70 54 0
80 60 46 108 -11 17 -25 22 -56 22 -35 0 -46 6 -77 39 -48 52 -74 106 -111
228 -16 55 -43 130 -60 167 -56 120 -169 273 -318 432 -61 64 -28 45 69 -39
223 -194 373 -366 495 -566 31 -51 39 -75 40 -114 1 -57 19 -77 69 -77 41 0
55 16 55 60 0 41 -24 70 -58 70 -13 0 -28 11 -38 27 -154 251 -307 437 -489
593 -140 121 -255 234 -255 253 0 37 56 -8 227 -179 257 -258 398 -371 608
-486 51 -28 81 -51 83 -63 6 -30 43 -65 69 -65 32 0 63 34 63 68 0 41 -31 66
-80 64 -28 -1 -60 8 -103 29 -141 72 -405 265 -517 379 -94 95 -165 180 -152
180 6 0 17 -6 24 -13 98 -94 303 -237 409 -285 89 -40 111 -47 214 -73 166
-41 265 -101 265 -161 0 -39 16 -67 46 -78 51 -20 110 42 85 89 -14 25 -48 44
-67 37 -7 -3 -35 13 -61 36 -61 53 -127 83 -250 113 -100 26 -185 56 -238 85
-141 79 -325 212 -325 236 0 11 30 -1 108 -42 59 -31 112 -60 117 -64 16 -11
97 -42 135 -51 19 -5 95 -16 169 -24 121 -13 188 -28 216 -46 6 -3 42 -17 80
-29 39 -13 83 -34 99 -47 47 -39 106 -13 106 47 0 60 -57 84 -109 46 l-32 -24
-113 39 c-86 30 -140 42 -222 49 -121 11 -136 14 -211 37 -29 8 -50 20 -47 24
3 5 66 9 140 9 l134 0 0 25 c0 16 6 25 16 25 13 0 14 -3 4 -15 -16 -19 9 -30
48 -20 26 6 26 7 7 20 -11 8 -24 18 -30 23 -63 51 -207 132 -236 132 -23 0
-25 15 -4 24 23 8 112 -12 175 -41 88 -40 198 -71 298 -84 l93 -12 20 -39 c17
-34 23 -38 58 -38 71 0 96 71 40 113 -24 17 -31 18 -61 7 -27 -10 -43 -10 -68
-1 -18 6 -54 11 -79 11 -75 1 -154 23 -269 76 -93 43 -173 56 -359 59 -172 4
-232 13 -163 26 19 4 76 15 125 24 121 23 354 23 450 0 204 -48 221 -50 307
-32 58 12 85 14 99 6 27 -14 77 -2 89 21 27 50 -2 100 -57 100 -30 0 -48 -14
-68 -53 -7 -14 -29 -25 -73 -35 -67 -16 -90 -14 -287 33 -106 25 -360 23 -484
-4 -52 -12 -107 -21 -122 -21 -15 0 -31 -5 -34 -10 -3 -5 -20 -10 -36 -10 -18
0 -28 4 -24 10 3 6 15 10 26 10 10 0 27 4 37 10 15 8 142 51 237 79 145 44
306 70 482 77 145 7 152 6 178 -14 43 -34 81 -28 104 15 16 31 14 50 -9 73
-28 28 -71 26 -100 -5 -22 -24 -29 -25 -141 -25 -65 0 -140 -4 -166 -9 -26 -5
-82 -14 -123 -21 -100 -15 -235 -51 -405 -106 -160 -52 -279 -84 -315 -84
l-25 1 22 18 c12 10 44 25 70 34 46 15 74 23 295 81 263 70 488 164 640 268
48 32 65 38 86 32 54 -15 92 10 92 62 0 36 -29 64 -65 64 -25 0 -65 -39 -65
-63 0 -39 -300 -197 -505 -266 -133 -44 -351 -101 -387 -101 -13 1 13 14 57
31 301 114 406 175 580 341 121 115 152 137 225 163 33 12 40 11 69 -7 27 -18
35 -19 61 -8 33 14 46 45 36 85 -12 48 -98 54 -118 9 -7 -16 -28 -29 -62 -40
-78 -25 -113 -49 -226 -159 -117 -114 -200 -175 -319 -235 -107 -53 -230 -102
-250 -98 -9 2 41 39 114 85 172 108 238 166 309 271 33 48 80 107 106 132 92
89 174 155 204 165 39 13 58 49 45 84 -13 32 -26 41 -66 41 -43 0 -67 -34 -58
-83 6 -33 4 -37 -52 -83 -92 -78 -147 -136 -201 -215 -56 -83 -104 -137 -144
-163 -36 -24 -35 -16 5 42 43 64 130 255 120 265 -14 15 -193 -80 -304 -162
-33 -23 -21 5 22 55 41 47 74 77 172 151 49 37 77 68 186 204 26 31 33 35 65
31 50 -6 76 18 76 69 0 42 -19 59 -64 59 -31 0 -66 -32 -66 -61 0 -11 -16 -39
-35 -62 -19 -23 -54 -67 -77 -96 -24 -30 -73 -79 -108 -108 -186 -152 -205
-175 -320 -380 -96 -172 -100 -136 -8 91 65 163 126 260 240 383 98 105 139
172 153 246 5 25 17 44 36 58 55 39 29 119 -38 119 -51 0 -85 -80 -47 -111 12
-10 14 -23 10 -52 -11 -65 -50 -127 -141 -226 -155 -169 -218 -281 -310 -556
-20 -60 -39 -112 -42 -115 -28 -25 68 377 129 543 70 191 163 361 203 371 14
4 32 18 41 32 16 23 16 28 1 58 -39 83 -152 31 -117 -53 10 -25 8 -34 -19 -78
-106 -172 -204 -447 -260 -723 -27 -135 -43 -208 -51 -232 -25 -70 -33 -88
-41 -88 -17 0 -8 96 17 185 72 259 82 296 100 380 29 138 44 281 44 434 0 145
1 157 20 169 14 9 20 23 20 50 0 48 -14 62 -61 62 -64 0 -90 -61 -46 -108 53
-57 35 -429 -33 -692 -31 -118 -52 -187 -60 -202 -6 -10 -10 -27 -10 -37 0
-11 -5 -23 -11 -27 -13 -7 -10 34 11 156 20 125 28 272 19 364 -8 84 -20 141
-63 299 -31 112 -15 217 36 243 38 20 50 51 32 85 -21 41 -63 51 -102 23z
m763 -794 c11 -17 -5 -32 -21 -19 -7 6 -11 15 -8 20 7 12 21 11 29 -1z m-81
-55 c4 -16 13 -25 26 -25 13 0 20 -7 20 -18 0 -22 -22 -72 -32 -72 -5 0 -8 -6
-8 -12 0 -12 -25 -46 -73 -97 -21 -24 -134 -109 -189 -144 -21 -13 -28 -14
-29 -5 -1 7 -2 20 -3 28 0 8 -13 16 -28 18 l-28 3 17 32 c60 117 176 250 250
285 18 9 33 19 33 24 0 21 38 6 44 -17z m-1052 -283 c2 -4 46 -41 98 -83 94
-75 210 -191 210 -210 0 -33 -87 28 -178 126 -98 105 -156 175 -144 175 6 0
12 -3 14 -8z m346 -138 l-3 -39 -20 38 c-17 33 -17 39 -5 47 22 14 32 -3 28
-46z m281 -68 c-39 -35 -50 -20 -19 24 18 26 24 29 37 18 13 -11 11 -16 -18
-42z m-470 -131 c21 -21 6 -29 -31 -19 -19 6 -34 17 -36 28 -3 16 0 18 25 12
15 -4 34 -14 42 -21z m277 -84 c-9 -13 -16 -14 -35 -2 -12 8 -13 12 -1 26 12
14 15 14 28 1 8 -8 11 -19 8 -25z m308 -49 c2 -4 1 -14 -4 -21 -9 -16 -45 -9
-75 13 -19 14 -17 15 27 16 26 0 49 -4 52 -8z m410 -29 c33 -8 90 -30 128 -49
69 -35 70 -35 54 -59 -9 -13 -15 -34 -13 -47 2 -23 0 -23 -105 -24 -60 -1
-108 2 -108 5 0 4 -19 12 -42 18 -108 29 -244 113 -183 113 18 0 20 36 3 46
-40 25 163 23 266 -3z m-904 -90 c0 -15 -46 -73 -57 -73 -23 0 -13 38 15 59
28 21 42 26 42 14z m264 -94 c16 -33 14 -49 -8 -49 -14 0 -26 30 -26 68 0 29
14 21 34 -19z m-450 -64 c-6 -23 -3 -25 25 -25 17 0 31 -5 31 -10 0 -21 -116
-187 -165 -235 -53 -53 -148 -110 -165 -100 -5 3 -10 12 -10 19 0 7 -12 18
-26 24 -28 14 -27 35 7 84 11 14 19 30 19 35 0 30 241 232 278 233 8 0 10 -8
6 -25z m656 -640 c0 -9 -9 -15 -22 -15 -22 1 -23 1 -4 15 25 19 26 19 26 0z"/>
<path d="M2312 2471 c-8 -5 -12 -22 -10 -42 2 -27 8 -35 26 -37 13 -2 30 2 38
8 40 34 -9 100 -54 71z"/>
<path d="M2176 2334 c-9 -8 -16 -31 -16 -50 0 -28 4 -35 25 -40 34 -8 75 19
75 51 0 28 -24 55 -50 55 -10 0 -26 -7 -34 -16z"/>
<path d="M2344 1695 c-15 -23 -15 -27 0 -50 18 -27 63 -34 84 -13 30 30 -1 88
-46 88 -12 0 -29 -11 -38 -25z"/>
<path d="M2545 1656 c-16 -12 -18 -19 -10 -43 18 -49 85 -40 85 11 0 43 -39
59 -75 32z"/>
<path d="M1272 1388 c-13 -13 -16 -47 -6 -72 4 -10 18 -16 35 -16 36 0 64 38
55 75 -5 20 -13 25 -39 25 -18 0 -38 -5 -45 -12z"/>
<path d="M1140 1246 c-19 -24 -8 -60 23 -71 24 -8 31 -6 43 10 18 24 18 40 -2
59 -19 20 -48 20 -64 2z"/>
<path d="M1344 3217 c-8 -23 3 -50 19 -44 13 4 11 36 -4 51 -5 6 -11 3 -15 -7z"/>
<path d="M1365 3120 c-10 -16 16 -43 28 -31 11 11 2 41 -12 41 -5 0 -13 -5
-16 -10z"/>
<path d="M1393 3004 c-18 -8 -16 -17 8 -43 17 -18 24 -20 35 -10 34 28 -2 70
-43 53z m37 -24 c0 -11 -4 -20 -9 -20 -11 0 -22 26 -14 34 12 12 23 5 23 -14z"/>
<path d="M1440 2846 c0 -18 -3 -54 -6 -80 l-7 -46 41 0 c25 0 44 6 49 14 13
23 40 -4 79 -79 18 -37 34 -61 34 -52 0 14 -38 95 -50 107 -3 3 -11 16 -18 30
-7 14 -33 48 -57 75 -25 28 -45 53 -45 58 0 4 -4 7 -10 7 -5 0 -10 -15 -10
-34z m44 -47 c-10 -16 -24 -9 -24 12 0 18 2 19 15 9 8 -7 12 -16 9 -21z"/>
<path d="M2733 2865 c-3 -9 -3 -18 0 -22 10 -10 37 6 37 22 0 20 -29 20 -37 0z"/>
<path d="M2670 2795 c-7 -9 -10 -18 -7 -21 10 -11 37 5 37 21 0 19 -14 19 -30
0z"/>
<path d="M2569 2723 c0 -5 -2 -19 -3 -31 -3 -29 20 -40 41 -19 20 19 8 57 -18
57 -10 0 -19 -3 -20 -7z m33 -28 c0 -5 -5 -11 -11 -13 -6 -2 -11 4 -11 13 0 9
5 15 11 13 6 -2 11 -8 11 -13z"/>
<path d="M1484 2655 c-16 -24 -16 -27 1 -45 40 -45 103 0 69 49 -20 28 -50 27
-70 -4z"/>
<path d="M1528 2474 c-14 -31 -3 -53 36 -72 35 -18 56 -2 56 42 0 39 -15 56
-52 56 -21 0 -32 -7 -40 -26z"/>
<path d="M3951 2350 c-45 -122 -449 -975 -480 -1012 -21 -25 -47 -42 -79 -52
-45 -14 -39 -15 133 -14 99 1 168 3 153 5 -33 5 -68 46 -68 80 0 24 93 255
113 281 7 9 68 12 242 12 177 0 234 -3 238 -12 119 -288 119 -287 92 -326 -9
-12 -30 -26 -48 -31 -22 -6 27 -9 163 -9 179 -1 191 0 151 13 -55 17 -86 47
-121 115 -15 30 -123 266 -240 525 -117 259 -215 474 -219 478 -5 4 -18 -19
-30 -53z m125 -398 l100 -247 -209 -3 c-116 -1 -212 -1 -214 2 -2 2 44 117
103 255 58 139 109 249 113 246 3 -4 51 -118 107 -253z"/>
<path d="M5560 2398 c-19 -5 -186 -13 -370 -16 -199 -4 -318 -10 -293 -14 28
-6 49 -18 67 -39 l26 -31 0 -463 c0 -271 -4 -474 -10 -489 -11 -29 -47 -56
-93 -66 -17 -5 138 -7 347 -7 l379 2 28 75 c56 144 69 180 65 180 -3 0 -20
-26 -39 -58 -42 -67 -66 -92 -127 -123 -42 -22 -58 -24 -242 -27 l-198 -4 0
241 0 241 178 0 c172 0 179 -1 199 -22 11 -13 24 -36 29 -53 8 -26 9 -22 12
32 2 34 2 93 0 130 -3 58 -4 63 -12 38 -5 -16 -18 -40 -29 -52 -20 -22 -27
-23 -199 -23 l-178 0 0 240 0 240 205 0 c253 0 266 -5 288 -105 3 -11 5 26 6
83 0 56 0 102 -1 101 -2 -1 -19 -6 -38 -11z"/>
<path d="M8531 2368 c-23 -78 -455 -992 -485 -1026 -32 -37 -57 -52 -101 -63
-16 -4 51 -7 150 -7 130 0 171 2 147 9 -23 7 -38 20 -49 45 -16 34 -16 36 17
117 18 45 46 110 61 145 l28 62 237 -2 237 -3 54 -129 c29 -71 53 -143 53
-161 0 -34 -19 -57 -60 -74 -18 -7 29 -10 165 -10 l190 0 -49 17 c-32 11 -59
29 -77 52 -15 19 -107 211 -204 425 -96 215 -201 447 -233 517 -31 70 -60 127
-63 128 -3 0 -11 -19 -18 -42z m116 -410 c56 -139 101 -253 99 -255 -2 -2 -98
-2 -214 -1 l-210 3 106 253 c58 138 109 252 112 252 3 0 51 -114 107 -252z"/>
<path d="M6030 2373 c52 -9 88 -24 111 -49 l24 -26 3 -453 c3 -492 2 -505 -51
-540 -13 -8 -44 -19 -68 -24 -30 -6 24 -9 171 -9 118 0 199 3 180 7 -46 9 -81
28 -102 55 -16 19 -18 61 -18 492 0 458 1 472 20 497 19 24 56 41 110 50 14 2
-72 4 -190 4 -118 0 -204 -2 -190 -4z"/>
<path d="M6735 2362 c38 -13 56 -27 80 -62 18 -25 135 -273 261 -552 126 -279
232 -508 235 -508 3 0 13 25 23 55 23 73 430 949 463 998 28 40 66 65 118 78
17 4 -51 7 -150 7 -171 1 -178 0 -143 -14 44 -18 63 -59 47 -102 -24 -69 -345
-822 -349 -822 -3 0 -80 184 -172 408 -108 262 -168 421 -168 444 0 37 18 60
60 77 18 7 -29 10 -165 10 l-190 0 50 -17z"/>
<path d="M340 2166 c0 -11 9 -16 26 -16 31 0 28 23 -4 28 -15 2 -22 -2 -22
-12z"/>
<path d="M436 2151 c-9 -15 23 -36 36 -23 5 5 7 15 4 21 -9 13 -33 14 -40 2z"/>
<path d="M562 2131 c-22 -14 -10 -46 19 -49 35 -4 55 20 34 42 -18 18 -33 20
-53 7z m38 -21 c0 -5 -7 -10 -15 -10 -8 0 -15 5 -15 10 0 6 7 10 15 10 8 0 15
-4 15 -10z"/>
<path d="M877 2113 c18 -2 50 -2 70 0 21 2 7 4 -32 4 -38 0 -55 -2 -38 -4z"/>
<path d="M754 2101 c-70 -17 -70 -18 -6 -66 33 -25 64 -45 70 -45 6 0 12 -3
14 -7 4 -11 87 -53 104 -53 8 0 14 -4 14 -10 0 -5 15 -10 33 -9 l32 0 -39 15
c-121 44 -174 83 -140 102 10 6 14 20 12 43 -3 30 -7 34 -33 36 -16 1 -44 -2
-61 -6z m24 -33 c-6 -18 -28 -21 -28 -4 0 9 7 16 16 16 9 0 14 -5 12 -12z"/>
<path d="M911 2056 c-18 -21 -10 -70 12 -74 10 -2 29 4 43 12 23 16 24 18 9
46 -17 32 -45 39 -64 16z"/>
<path d="M1086 2014 c-32 -32 -8 -84 39 -84 25 0 55 24 55 44 0 19 -39 56 -60
56 -10 0 -26 -7 -34 -16z"/>
<path d="M2921 1561 c-33 -9 -37 -26 -10 -45 26 -18 49 -6 49 25 0 23 -9 27
-39 20z m19 -27 c0 -17 -22 -14 -28 4 -2 7 3 12 12 12 9 0 16 -7 16 -16z"/>
<path d="M3035 1510 c-8 -12 20 -24 35 -15 6 3 8 11 5 16 -8 12 -32 12 -40 -1z"/>
<path d="M3120 1490 c0 -15 27 -23 47 -16 15 6 15 8 3 16 -20 13 -50 12 -50 0z"/>
<path d="M1906 1241 c-26 -29 -17 -73 17 -89 25 -12 31 -12 48 4 32 29 24 70
-18 93 -28 14 -27 14 -47 -8z"/>
<path d="M1962 1048 c-7 -7 -12 -25 -12 -40 0 -36 41 -49 70 -23 26 23 25 40
-2 59 -27 19 -40 20 -56 4z"/>
<path d="M893 964 c-8 -20 21 -49 41 -41 9 4 16 18 16 32 0 20 -5 25 -25 25
-14 0 -28 -7 -32 -16z m44 -20 c-3 -4 -14 -3 -24 0 -15 6 -15 8 -3 16 16 10
39 -4 27 -16z"/>
<path d="M817 873 c-14 -13 -6 -33 12 -33 19 0 35 23 24 34 -8 8 -28 8 -36 -1z"/>
<path d="M752 798 c-17 -17 -15 -28 7 -28 16 0 31 18 31 36 0 9 -27 3 -38 -8z"/>
<path d="M2072 668 c4 -39 31 -50 47 -19 8 15 7 23 -5 35 -27 27 -46 20 -42
-16z m36 1 c-2 -6 -8 -10 -13 -10 -5 0 -11 4 -13 10 -2 6 4 11 13 11 9 0 15
-5 13 -11z"/>
<path d="M2116 554 c-8 -20 1 -34 20 -34 15 0 17 9 8 34 -8 20 -20 20 -28 0z"/>
<path d="M2144 467 c-4 -11 -1 -24 8 -34 13 -13 16 -13 21 0 3 8 0 23 -8 34
-13 17 -14 17 -21 0z"/>
</g>
</svg>
